<svg width="187" height="32" viewBox="0 0 187 32" fill="none" xmlns="http://www.w3.org/2000/svg">
<path d="M5.94456 26C5.94456 24.4234 5.31826 22.9114 4.20344 21.7966C3.08862 20.6817 1.5766 20.0554 0 20.0554V26H5.94456Z" fill="#FFC800"/>
<path d="M0 7.94456C1.5766 7.94456 3.08862 7.31826 4.20344 6.20344C5.31826 5.08862 5.94456 3.57659 5.94456 2H0V7.94456Z" fill="#FFC800"/>
<path d="M18.0554 26C18.0554 24.4234 18.6817 22.9114 19.7965 21.7966C20.9114 20.6817 22.4234 20.0554 24 20.0554V26H18.0554Z" fill="#FFC800"/>
<path d="M24 7.94456C23.2193 7.94456 22.4463 7.7908 21.7251 7.49206C21.0039 7.19331 20.3485 6.75544 19.7965 6.20344C19.2445 5.65143 18.8067 4.99611 18.5079 4.27488C18.2092 3.55366 18.0554 2.78065 18.0554 2H24V7.94456Z" fill="#FFC800"/>
<path d="M9.91783 16.0821C9.11986 15.2836 8.22828 14.5845 7.2625 14C5.0713 15.3233 2.55975 16.0216 0 16.0193C1.31121 16.017 2.60997 16.2738 3.82165 16.7749C5.03334 17.276 6.13408 18.0116 7.06065 18.9393C7.98839 19.8659 8.72393 20.9667 9.22501 22.1784C9.72609 23.39 9.98284 24.6888 9.98052 26C9.9783 23.4402 10.6767 20.9287 12 18.7375C11.4154 17.7717 10.7163 16.8801 9.91783 16.0821Z" fill="#FFC800"/>
<path d="M9.91783 11.9179C10.7164 11.1199 11.4155 10.2283 12 9.26247C10.6767 7.0713 9.97831 4.55976 9.98052 2C9.98284 3.31121 9.72608 4.60995 9.22499 5.82164C8.7239 7.03333 7.98835 8.13407 7.0606 9.06065C6.13403 9.98839 5.03329 10.7239 3.82161 11.225C2.60993 11.7261 1.3112 11.9828 0 11.9805C2.55975 11.9783 5.07133 12.6767 7.2625 14C8.22828 13.4155 9.11985 12.7164 9.91783 11.9179Z" fill="#FA783C"/>
<path d="M0 11.9805L0 16.0193C2.55975 16.0216 5.0713 15.3233 7.2625 14C5.07133 12.6767 2.55975 11.9783 0 11.9805Z" fill="#FA4628"/>
<path d="M14.0821 16.0821C13.2836 16.8801 12.5845 17.7717 12 18.7375C13.3232 20.9287 14.0216 23.4402 14.0193 26C14.0179 24.6889 14.275 23.3904 14.776 22.1789C15.2771 20.9673 16.0122 19.8665 16.9393 18.9394C17.8663 18.0123 18.9672 17.2772 20.1787 16.7762C21.3903 16.2751 22.6888 16.018 23.9999 16.0195C21.4401 16.0217 18.9285 15.3234 16.7373 14.0001C15.7716 14.5846 14.8801 15.2836 14.0821 16.0821Z" fill="#FA783C"/>
<path d="M9.98052 26H14.0193C14.0216 23.4402 13.3232 20.9287 12 18.7375C10.6767 20.9287 9.9783 23.4402 9.98052 26Z" fill="#FA4628"/>
<path d="M14.0821 11.9179C14.8801 12.7164 15.7716 13.4156 16.7373 14.0001C18.9285 12.6768 21.4402 11.9783 24 11.9805C22.6888 11.9828 21.39 11.7261 20.1784 11.225C18.9667 10.7239 17.8659 9.9884 16.9393 9.06065C16.0116 8.13407 15.276 7.03332 14.7749 5.82164C14.2738 4.60996 14.017 3.31121 14.0193 2C14.0216 4.55975 13.3233 7.07129 12 9.26247C12.5845 10.2283 13.2836 11.1199 14.0821 11.9179Z" fill="#FFC800"/>
<path d="M14.0193 2H9.98052C9.97831 4.55976 10.6767 7.0713 12 9.26247C13.3233 7.07129 14.0216 4.55975 14.0193 2Z" fill="#FA4628"/>
<path d="M16.7373 14.0001C18.9285 15.3234 21.4401 16.0217 23.9999 16.0195L24 11.9805C21.4402 11.9783 18.9285 12.6768 16.7373 14.0001Z" fill="#FA4628"/>
<path d="M61.4882 2.65642C61.9733 2.2324 62.5861 2 63.2191 2C63.8521 2 64.4649 2.2324 64.95 2.65642C65.1741 2.87111 65.351 3.13374 65.4687 3.42633C65.5864 3.71892 65.6421 4.03457 65.6319 4.35168C65.6407 4.66333 65.5856 4.97334 65.4703 5.26101C65.3549 5.54867 65.1821 5.80735 64.9632 6.01977C64.473 6.44398 63.8561 6.67617 63.2191 6.67617C62.5821 6.67617 61.9652 6.44398 61.475 6.01977C61.2561 5.80737 61.0832 5.54869 60.9679 5.26102C60.8526 4.97336 60.7975 4.66333 60.8063 4.35168C60.796 4.03455 60.8516 3.71886 60.9694 3.42625C61.0871 3.13364 61.2641 2.87103 61.4882 2.65642ZM61.1472 8.72266H65.2648V22.2315H61.1472V8.72266Z" fill="#1F1F1F"/>
<path d="M70.8143 29.2868C69.8349 28.8712 68.9921 28.1683 68.3883 27.2632C67.8136 26.3658 67.5162 25.3065 67.536 24.2276C67.5327 24.0086 67.5414 23.7895 67.5622 23.5715H71.5225C71.4872 24.4644 71.7276 25.1572 72.2436 25.6497C72.759 26.142 73.5065 26.3881 74.4859 26.388C75.36 26.388 76.0681 26.183 76.6102 25.773C76.8653 25.5942 77.0734 25.3516 77.2154 25.0674C77.3575 24.7832 77.4289 24.4664 77.4232 24.1459C77.4375 23.8353 77.3766 23.5258 77.2459 23.2462C77.1153 22.9666 76.9192 22.7258 76.6758 22.5461C76.1775 22.1725 75.465 21.9857 74.5382 21.9856C73.2372 22.0162 71.9477 21.7257 70.7748 21.1378C69.7385 20.6104 68.8726 19.7788 68.2833 18.7452C67.6817 17.6523 67.378 16.4089 67.4048 15.1492C67.385 13.9126 67.6985 12.6952 68.3096 11.6352C68.9155 10.6025 69.788 9.76853 70.8272 9.22864C71.9716 8.63781 73.2353 8.34239 74.512 8.36729C75.5258 8.35547 76.5292 8.57963 77.4494 9.02343L78.9705 7.05475L81.9866 9.32417L80.2557 11.4299C81.1246 12.4542 81.5927 13.7817 81.567 15.149C81.5743 16.1219 81.3345 17.0795 80.872 17.9244C80.3997 18.7819 79.7277 19.5014 78.9181 20.0165C79.7366 20.3882 80.4402 20.9892 80.9506 21.7528C81.4363 22.5081 81.6881 23.4005 81.6719 24.3097C81.6892 25.3816 81.3767 26.4311 80.7803 27.3042C80.1406 28.2062 79.267 28.8987 78.2625 29.3004C77.0595 29.7879 75.7764 30.0249 74.4859 29.9978C73.2283 30.0257 71.9785 29.7837 70.8143 29.2868ZM72.3092 17.4596C72.9121 18.0293 73.696 18.3459 74.5096 18.3484C75.3233 18.3509 76.109 18.0391 76.7151 17.4732C77.2745 16.89 77.5542 16.1153 77.5544 15.149C77.5546 14.1827 77.2792 13.4124 76.7283 12.8381C76.1775 12.2638 75.4388 11.9767 74.5121 11.9767C74.1082 11.9584 73.705 12.0252 73.3264 12.1732C72.9479 12.3212 72.6019 12.5473 72.3092 12.8381C71.7495 13.4124 71.4697 14.1827 71.4699 15.149C71.4533 15.5732 71.5191 15.9966 71.6633 16.3937C71.8075 16.7907 72.0272 17.1533 72.3092 17.4596Z" fill="#1F1F1F"/>
<path d="M84.2945 3.08946H88.412V10.1994C89.4086 9.01441 90.7286 8.42186 92.3721 8.42174C93.9628 8.42174 95.2261 8.97777 96.1618 10.0898C97.097 11.2022 97.5647 12.7062 97.5649 14.6018V22.2315H93.4474V14.8481C93.4474 13.9729 93.2419 13.2892 92.831 12.797C92.6156 12.5483 92.3495 12.3529 92.0523 12.2251C91.7551 12.0974 91.4342 12.0406 91.1132 12.0588C90.7482 12.0447 90.3845 12.1132 90.0472 12.2595C89.7099 12.4059 89.407 12.6266 89.1593 12.9066C88.6453 13.5166 88.3774 14.3103 88.412 15.1215V22.2315H84.2945V3.08946Z" fill="#1F1F1F"/>
<path d="M111.522 20.7822L113.096 17.8287C113.776 18.252 114.515 18.5655 115.285 18.7586C116.095 18.9747 116.928 19.0849 117.764 19.0867C118.9 19.0867 119.468 18.7677 119.469 18.1296C119.47 17.9714 119.426 17.8163 119.342 17.6846C119.257 17.5529 119.137 17.4507 118.996 17.3912C118.495 17.1849 117.962 17.0738 117.423 17.0631C115.779 16.9722 114.472 16.5438 113.502 15.778C113.042 15.4386 112.669 14.987 112.416 14.4627C112.162 13.9383 112.035 13.3571 112.047 12.7699C112.03 12.1398 112.165 11.5154 112.44 10.954C112.715 10.3926 113.121 9.91212 113.62 9.55656C114.669 8.76372 116.085 8.36724 117.869 8.36714C118.847 8.36246 119.821 8.49112 120.767 8.74985C121.608 8.9706 122.409 9.33071 123.14 9.81641L121.54 12.6878C120.472 12.0813 119.269 11.7794 118.052 11.8126C116.723 11.8126 116.059 12.1407 116.059 12.797C116.059 12.932 116.098 13.0639 116.171 13.1758C116.243 13.2878 116.346 13.3748 116.465 13.426C116.904 13.615 117.369 13.726 117.842 13.7544C119.695 13.9005 121.107 14.338 122.078 15.0669C123.048 15.7963 123.533 16.8172 123.534 18.1296C123.553 18.7709 123.417 19.4069 123.137 19.9783C122.857 20.5497 122.443 21.0379 121.934 21.3973C120.867 22.1904 119.39 22.587 117.501 22.587C115.211 22.587 113.218 21.9854 111.522 20.7822Z" fill="#1F1F1F"/>
<path d="M145.222 21.6982C144.161 21.1627 143.275 20.311 142.678 19.2508C142.063 18.1085 141.755 16.8141 141.787 15.5043C141.763 14.2146 142.066 12.9414 142.665 11.8126C143.237 10.7516 144.088 9.88338 145.117 9.31059C146.241 8.69931 147.495 8.3936 148.763 8.42177C150.033 8.38784 151.293 8.674 152.434 9.25596C153.431 9.77767 154.257 10.5961 154.808 11.6076C155.376 12.6922 155.661 13.9135 155.634 15.149C155.626 15.6892 155.582 16.2282 155.503 16.7622H145.983C146.043 17.1042 146.169 17.4298 146.354 17.719C146.539 18.0083 146.778 18.255 147.058 18.4441C147.737 18.8977 148.534 19.122 149.34 19.0867C149.98 19.0879 150.617 18.9864 151.228 18.7858C151.799 18.6079 152.332 18.3205 152.802 17.9383L154.952 20.3446C154.197 21.0688 153.309 21.6269 152.343 21.9855C151.312 22.3726 150.225 22.567 149.13 22.5595C147.781 22.5946 146.442 22.2996 145.222 21.6982ZM151.726 14.3013C151.718 13.9528 151.641 13.6098 151.498 13.2944C151.356 12.9789 151.152 12.6978 150.9 12.469C150.402 12.0314 149.733 11.8126 148.894 11.8126C148.172 11.779 147.462 12.0113 146.888 12.469C146.628 12.6946 146.416 12.9739 146.265 13.2893C146.113 13.6046 146.026 13.9492 146.009 14.3013H151.726Z" fill="#1F1F1F"/>
<path d="M160.669 21.6982C159.608 21.1627 158.722 20.311 158.125 19.2508C157.51 18.1085 157.202 16.8141 157.234 15.5043C157.21 14.2146 157.513 12.9414 158.112 11.8126C158.684 10.7516 159.535 9.88337 160.564 9.31059C161.688 8.69931 162.942 8.3936 164.21 8.42177C165.48 8.38784 166.74 8.674 167.881 9.25596C168.878 9.77767 169.704 10.5961 170.255 11.6076C170.823 12.6922 171.108 13.9135 171.081 15.149C171.073 15.6892 171.029 16.2282 170.95 16.7622H161.43C161.49 17.1042 161.616 17.4298 161.801 17.719C161.986 18.0083 162.225 18.255 162.505 18.4441C163.184 18.8977 163.981 19.122 164.787 19.0867C165.427 19.0879 166.064 18.9864 166.675 18.7858C167.245 18.6079 167.779 18.3205 168.248 17.9383L170.399 20.3446C169.644 21.0688 168.756 21.6269 167.79 21.9855C166.76 22.3726 165.672 22.567 164.577 22.5595C163.228 22.5946 161.889 22.2996 160.669 21.6982ZM167.173 14.3013C167.165 13.9528 167.088 13.6098 166.945 13.2944C166.803 12.9789 166.599 12.6978 166.347 12.469C165.849 12.0314 165.18 11.8126 164.341 11.8126C163.619 11.779 162.909 12.0113 162.335 12.469C162.075 12.6946 161.863 12.9739 161.711 13.2893C161.56 13.6046 161.473 13.9492 161.456 14.3013H167.173Z" fill="#1F1F1F"/>
<path d="M45.559 11.8264C45.0661 10.7956 44.302 9.93237 43.356 9.33773C42.3801 8.73658 41.2635 8.42904 40.1302 8.44919C38.6494 8.40595 37.2104 8.96485 36.1176 10.0077V3.08941H32V22.2314H36.0912V20.8887C37.1553 21.9615 38.499 22.5049 40.1301 22.5049C41.2635 22.5252 42.3801 22.2175 43.3559 21.6161C44.302 21.0217 45.0662 20.1585 45.5589 19.1277C46.0982 17.9942 46.3681 16.7421 46.3457 15.477C46.3681 14.2119 46.0982 12.9598 45.559 11.8264ZM41.389 17.9518C41.1019 18.2637 40.755 18.5088 40.3709 18.6714C39.9868 18.834 39.5741 18.9103 39.1598 18.8953C38.7462 18.9109 38.3342 18.8335 37.9518 18.6684C37.5694 18.5032 37.2256 18.2542 36.9437 17.9383C36.3626 17.2651 36.0568 16.3819 36.0913 15.477C36.0569 14.5721 36.3627 13.689 36.9437 13.0158C37.2256 12.6999 37.5695 12.4509 37.9519 12.2858C38.3342 12.1207 38.7462 12.0432 39.1598 12.0588C39.5741 12.0438 39.9868 12.1201 40.3709 12.2826C40.755 12.4452 41.1019 12.6904 41.389 13.0022C41.966 13.6312 42.2545 14.4561 42.2544 15.477C42.2542 16.4979 41.9658 17.3229 41.389 17.9518Z" fill="#1F1F1F"/>
<path d="M57.885 8.76367C57.3147 8.54033 56.7108 8.42455 56.1016 8.42172C55.4678 8.40661 54.84 8.55348 54.2732 8.84952C53.7063 9.14555 53.2176 9.58175 52.8496 10.12V8.72262H48.7322V22.2314H52.8497V15.6684C52.8497 14.5383 53.1032 13.6815 53.6102 13.0979C53.8738 12.8038 54.1958 12.5732 54.5536 12.4221C54.9114 12.271 55.2965 12.203 55.6821 12.223C56.0206 12.2211 56.3572 12.2764 56.6787 12.3868C57.0376 12.5186 57.3808 12.693 57.7015 12.9065L59.4325 9.76169C58.989 9.3202 58.4619 8.98026 57.885 8.76367Z" fill="#1F1F1F"/>
<path d="M108.79 18.4851C108.327 18.7335 107.815 18.8646 107.295 18.8678C107.1 18.8791 106.904 18.8499 106.719 18.7818C106.535 18.7138 106.365 18.6082 106.22 18.4713C105.957 18.2073 105.826 17.8016 105.826 17.2544V12.1409H109.052V8.72262H105.826V4.89422H101.735V8.72262H99.532V12.1409H101.735V17.2544C101.735 19.0961 102.146 20.4315 102.968 21.2605C103.789 22.0906 104.908 22.5053 106.325 22.5049C107.514 22.5252 108.691 22.2535 109.76 21.7117L108.79 18.4851Z" fill="#1F1F1F"/>
<path d="M139.348 11.8264C138.855 10.7956 138.091 9.93236 137.145 9.33773C136.169 8.73656 135.052 8.42901 133.919 8.44919C132.274 8.44919 130.93 8.98359 129.88 10.0383V8.72262H125.789V28.0834H129.907V20.9189C130.973 21.9762 132.31 22.5049 133.919 22.5049C135.052 22.5252 136.169 22.2176 137.145 21.6161C138.091 21.0217 138.855 20.1586 139.348 19.1277C139.887 17.9942 140.157 16.7421 140.135 15.477C140.157 14.2119 139.887 12.9598 139.348 11.8264ZM135.178 17.9518C134.891 18.2637 134.544 18.5089 134.16 18.6714C133.776 18.834 133.363 18.9103 132.949 18.8953C132.535 18.9109 132.123 18.8335 131.741 18.6684C131.358 18.5032 131.015 18.2542 130.733 17.9383C130.152 17.2651 129.846 16.3819 129.88 15.477C129.846 14.5721 130.152 13.689 130.733 13.0158C131.015 12.6999 131.358 12.4509 131.741 12.2858C132.123 12.1207 132.535 12.0432 132.949 12.0588C133.363 12.0438 133.776 12.1201 134.16 12.2826C134.544 12.4452 134.891 12.6904 135.178 13.0022C135.755 13.6312 136.043 14.4561 136.043 15.477C136.043 16.4979 135.755 17.3229 135.178 17.9518Z" fill="#1F1F1F"/>
<path d="M182.882 3.08941V10.0626C182.371 9.53793 181.759 9.13246 181.086 8.87305C180.353 8.58593 179.575 8.44228 178.791 8.44931C177.676 8.42872 176.578 8.73164 175.618 9.32424C174.684 9.91565 173.933 10.7748 173.454 11.799C172.921 12.9442 172.656 14.2046 172.681 15.4771C172.656 16.7497 172.921 18.0101 173.454 19.1552C173.933 20.1796 174.684 21.0387 175.618 21.63C176.578 22.2228 177.676 22.5257 178.791 22.505C179.676 22.5177 180.553 22.3312 181.362 21.9581C181.929 21.6936 182.445 21.3214 182.883 20.8606V22.2315H187V3.08941H182.882ZM182.07 17.9518C181.782 18.2636 181.436 18.5088 181.051 18.6714C180.667 18.834 180.255 18.9103 179.84 18.8953C179.427 18.9109 179.015 18.8335 178.632 18.6684C178.25 18.5032 177.906 18.2542 177.624 17.9383C177.043 17.2651 176.737 16.3819 176.772 15.477C176.737 14.5721 177.043 13.689 177.624 13.0158C177.906 12.6999 178.25 12.4509 178.632 12.2858C179.015 12.1207 179.427 12.0432 179.84 12.0588C180.255 12.0438 180.667 12.1201 181.052 12.2826C181.436 12.4452 181.783 12.6904 182.07 13.0022C182.509 13.4865 182.794 14.1015 182.883 14.7619V16.1925C182.793 16.8528 182.509 17.4677 182.07 17.9518Z" fill="#1F1F1F"/>
</svg>
