<svg version="1.1" id="Layer_1" xmlns="http://www.w3.org/2000/svg" x="0" y="0" viewBox="0 0 1080 427.67" style="enable-background:new 0 0 1080 427.67" xml:space="preserve"><style>.st1{fill:#008600}.st2{fill:#02caff}</style><path style="fill:none" d="M0 0h1080v427.67H0z"/><path class="st1" d="m206.2 174.16-54.61 67.74h54.61v25.8h-98.69v-13.98l54.61-67.73h-54.61v-25.8h98.69zM218.89 160.19h27.52V267.7h-27.52zM344.45 213.94c0-17.42-11.83-29.67-27.95-29.67-16.34 0-27.95 12.26-27.95 29.67 0 17.2 11.61 29.46 27.95 29.46 16.13 0 27.95-12.26 27.95-29.46m28.39 0c0 30.53-24.73 55.48-55.48 55.48-11.18 0-21.5-3.23-30.1-9.03v59.78h-27.52V160.19h27.52v7.1c8.6-5.59 18.92-8.82 30.1-8.82 30.75 0 55.48 24.73 55.48 55.47M380.21 107.51h27.52V267.7h-27.52zM517.6 160.19l-55.9 148.58h-27.52l19.56-52.04-38.06-96.54h27.53l24.08 60.85 22.79-60.85z"/><path class="st2" d="M248.89 125.89c0 9.06-7.35 16.41-16.41 16.41-9.07 0-16.41-7.35-16.41-16.41s7.35-16.41 16.41-16.41 16.41 7.35 16.41 16.41M609.44 160.53v13.73h-33.92v93.43H559.5v-93.43h-14.78v-13.94h14.78v-9.36c0-23.52 11.86-36 32.46-36 7.49 0 12.49.83 17.69 2.7v13.94c-5.83-1.66-10.2-2.71-15.61-2.71-12.49 0-18.73 7.49-18.73 22.89v8.74h34.13zM623.59 160.11h16.02V267.7h-16.02zM721.5 172.18c-19.98 0-38.91 16.65-38.91 41.62 0 25.18 18.94 41.83 38.91 41.83 20.81 0 37.87-15.4 37.87-41.62 0-25.59-17.47-41.83-37.87-41.83m2.92 97.81c-19.98 0-32.88-10.82-41.2-22.89v20.6H667.2V115.79h16.02v65.96c8.74-12.9 21.43-23.93 41.2-23.93 25.8 0 51.4 20.39 51.4 55.98 0 35.38-25.39 56.19-51.4 56.19M876.08 207.98c-1.66-19.56-12.9-36.63-34.34-36.63-18.73 0-32.88 15.61-34.96 36.63h69.3zm-31.43 48.27c14.78 0 25.18-6.04 33.92-15.19l9.99 8.95c-10.82 12.07-23.93 20.19-44.32 20.19-29.55 0-53.69-22.68-53.69-56.18 0-31.21 21.85-56.19 51.61-56.19 31.84 0 50.15 25.39 50.15 57.02 0 1.46 0 3.12-.21 4.99h-85.32c2.29 23.3 18.94 36.41 37.87 36.41M928.58 267.7h-16.02V160.11h16.02v28.09c7.91-17.9 23.51-30.8 43.91-29.97v17.27h-1.25c-23.52 0-42.66 16.85-42.66 49.32v42.88zM643.04 127.66c0 6.1-4.94 11.04-11.04 11.04-6.1 0-11.04-4.94-11.04-11.04 0-6.1 4.94-11.04 11.04-11.04 6.1 0 11.04 4.95 11.04 11.04"/></svg>
