<svg width="140" height="35" viewBox="0 0 140 35" fill="none" xmlns="http://www.w3.org/2000/svg">
<path fill-rule="evenodd" clip-rule="evenodd" d="M15.6497 33.8135H10.2879L0 0.919739H5.36181L15.6497 33.8135Z" fill="#C62328"/>
<path fill-rule="evenodd" clip-rule="evenodd" d="M36.2533 33.8129H30.8913L20.6036 0.919189H25.9654L36.2533 33.8129Z" fill="#F26529"/>
<path fill-rule="evenodd" clip-rule="evenodd" d="M30.9276 33.8129H36.2894L46.5773 0.919189H41.2155L30.9276 33.8129Z" fill="#F26529"/>
<path fill-rule="evenodd" clip-rule="evenodd" d="M10.3151 33.8129H15.6771L25.9647 0.919189H20.6029L10.3151 33.8129Z" fill="#C62328"/>
<path fill-rule="evenodd" clip-rule="evenodd" d="M91.4325 33.8129H86.0709L75.7828 0.919189H81.1449L91.4325 33.8129Z" fill="#10ACE3"/>
<path fill-rule="evenodd" clip-rule="evenodd" d="M112.037 33.8135H106.675L96.3875 0.919739H101.749L112.037 33.8135Z" fill="#0072AB"/>
<path fill-rule="evenodd" clip-rule="evenodd" d="M106.702 33.8129H112.064L122.351 0.919189H116.989L106.702 33.8129Z" fill="#0072AB"/>
<path fill-rule="evenodd" clip-rule="evenodd" d="M126.026 23.8511L133.199 0.919189H127.837L120.665 23.8511H126.026Z" fill="#0072AB"/>
<path fill-rule="evenodd" clip-rule="evenodd" d="M119.096 28.8902L117.557 33.8134H122.918L124.465 28.8674L119.096 28.8902Z" fill="#0072AB"/>
<path fill-rule="evenodd" clip-rule="evenodd" d="M86.0986 33.8135H91.4607L101.749 0.919739H96.3867L86.0986 33.8135Z" fill="#10ACE3"/>
<path fill-rule="evenodd" clip-rule="evenodd" d="M78.2693 14.8612C77.9772 12.9688 77.3623 11.1821 76.4898 9.54881C76.458 9.48963 76.4219 9.43322 76.3897 9.37425C74.253 5.48827 70.6232 2.51508 66.2533 1.19098L64.7841 5.88847L64.783 5.89146C65.0655 5.97714 65.3448 6.07051 65.6182 6.17521C65.7211 6.21474 65.8199 6.26175 65.9216 6.30405C66.1201 6.3861 66.3188 6.46772 66.5116 6.5596C66.6289 6.61537 66.7415 6.6784 66.8566 6.7378C67.0281 6.82626 67.2003 6.91365 67.367 7.0098C67.4858 7.07817 67.5999 7.15274 67.7159 7.22496C67.8724 7.32197 68.0288 7.41876 68.1803 7.5226C68.2963 7.60208 68.408 7.68648 68.5212 7.76981C68.6655 7.87601 68.8091 7.98241 68.948 8.09437C69.0592 8.18411 69.1665 8.27749 69.2742 8.37065C69.4077 8.48603 69.5396 8.60205 69.6675 8.72277C69.772 8.82127 69.8734 8.92277 69.9744 9.0249C70.0974 9.14925 70.218 9.27489 70.3353 9.40437C70.4321 9.51099 70.5262 9.61932 70.6193 9.72936C70.7318 9.86269 70.8413 9.99794 70.948 10.1358C71.0361 10.2496 71.1225 10.3646 71.2065 10.4817C71.3086 10.6236 71.4063 10.7682 71.5023 10.9148C71.5809 11.0349 71.6586 11.1552 71.733 11.2782C71.8242 11.4289 71.9102 11.5829 71.9946 11.7378C72.0632 11.863 72.1318 11.9878 72.1958 12.1156C72.2759 12.2759 72.3492 12.4397 72.4223 12.6038C72.4798 12.7327 72.5386 12.8605 72.5914 12.9914C72.6602 13.1624 72.7207 13.3369 72.7819 13.5117C72.8274 13.6416 72.8755 13.7698 72.9166 13.9017C72.9741 14.0869 73.0217 14.276 73.0705 14.4649C73.1027 14.5912 73.1399 14.7155 73.1682 14.8433C73.2154 15.0557 73.2505 15.2721 73.2862 15.4884C73.3042 15.5969 73.328 15.7035 73.343 15.8131C73.3876 16.1409 73.4203 16.4725 73.4375 16.8082C73.4451 17.015 73.4538 17.2214 73.4538 17.43C73.4538 17.6387 73.4451 17.8453 73.4375 18.0519C73.4216 18.362 73.3898 18.6675 73.3502 18.9709C73.3386 19.059 73.3249 19.1461 73.3114 19.2335C73.2764 19.4634 73.2348 19.6908 73.1867 19.9164C73.1697 19.9952 73.1547 20.0745 73.1364 20.1527C73.072 20.4279 73.0004 20.7001 72.9173 20.9677L72.9138 20.9785C72.9101 20.9901 72.9055 21.0012 72.9016 21.0129C72.8807 21.0796 72.8548 21.1439 72.8324 21.2104C72.7571 21.4349 72.677 21.6569 72.5888 21.8755C72.5484 21.9762 72.504 22.0747 72.4606 22.1738C72.381 22.3567 72.2976 22.5377 72.2093 22.7159C72.1588 22.8169 72.1078 22.9174 72.0547 23.0169C71.959 23.1964 71.8577 23.3725 71.7535 23.5464C71.7013 23.6334 71.6512 23.7214 71.597 23.8067C71.4499 24.0381 71.2958 24.2645 71.1338 24.4851C71.1177 24.5071 71.1036 24.5303 71.0871 24.5521C70.9079 24.7927 70.7181 25.0246 70.522 25.2513C70.4596 25.3233 70.3934 25.3916 70.3292 25.4622C70.1892 25.6162 70.0469 25.7677 69.8991 25.9143C69.821 25.9923 69.7413 26.0679 69.661 26.1435C69.5158 26.2801 69.3672 26.4128 69.2153 26.5425C69.1339 26.6119 69.0531 26.682 68.9698 26.7495C68.7937 26.8918 68.6126 27.0277 68.4289 27.1606C68.3662 27.2057 68.3064 27.2535 68.243 27.2976C67.9945 27.4702 67.7394 27.6337 67.4775 27.7884C67.4168 27.824 67.3535 27.8554 67.2923 27.8903C67.0877 28.0063 66.8803 28.118 66.6688 28.2227C66.5734 28.2698 66.4766 28.3131 66.3802 28.3578C66.1938 28.4439 66.0054 28.5259 65.814 28.6029C65.7109 28.6445 65.6075 28.6853 65.5028 28.7242C65.3019 28.7988 65.0982 28.867 64.8925 28.9313C64.7987 28.9608 64.7062 28.9926 64.6115 29.0199C64.3112 29.106 64.0073 29.1842 63.6981 29.2484C62.8756 29.4182 62.0235 29.5092 61.1494 29.5092C60.2905 29.5092 59.4524 29.4221 58.6431 29.2577C58.355 29.1992 58.0709 29.1298 57.7906 29.052L57.6885 29.0212C57.6456 29.009 57.6045 28.9932 57.5618 28.9804L56.0912 33.6824C56.9183 33.9302 57.7686 34.126 58.6431 34.2505C59.4617 34.367 60.2979 34.43 61.1494 34.43C62.0156 34.43 62.8662 34.3655 63.6981 34.2452C65.6576 33.9612 67.5061 33.3489 69.1941 32.4771C69.2442 32.4514 69.2919 32.4226 69.3415 32.3965C74.0379 29.9141 77.4392 25.375 78.2693 19.9991C78.4519 19.1709 78.5507 18.312 78.5507 17.43C78.5507 16.5481 78.4519 15.6894 78.2693 14.8612Z" fill="#10ACE3"/>
<path fill-rule="evenodd" clip-rule="evenodd" d="M63.7024 0.614815C62.8705 0.494307 62.0199 0.429993 61.1537 0.429993C60.3022 0.429993 59.466 0.493025 58.6475 0.609687C56.6723 0.890874 54.807 1.50196 53.107 2.37971C53.0682 2.3998 53.0286 2.41817 52.9901 2.43847C47.7197 5.21038 44.0815 10.5816 43.8531 16.8081C43.8453 17.0149 43.837 17.2213 43.837 17.4298C43.837 17.6386 43.8453 17.8452 43.8531 18.0518C43.9493 20.6755 44.6526 23.1461 45.8264 25.3358C45.8527 25.3847 45.8806 25.4326 45.9073 25.4813C48.0496 29.3843 51.7018 32.3652 56.0955 33.6823L57.5662 28.9803C53.3394 27.716 50.0768 24.2837 49.1312 19.999C49.0019 19.161 48.9342 18.3031 48.9342 17.4298C48.9342 16.5566 49.0019 15.6991 49.1312 14.8611C49.1705 14.6831 49.2213 14.5094 49.2683 14.3344L49.5597 13.4035C50.9783 9.46579 54.4105 6.46333 58.6475 5.60225C59.4567 5.43794 60.2948 5.35098 61.1537 5.35098C62.0278 5.35098 62.8799 5.442 63.7024 5.61187C64.0376 5.68131 64.3677 5.764 64.6922 5.85951L64.692 5.85929L64.6938 5.85993H64.694L64.7884 5.88835L66.2576 1.19086C65.4299 0.940018 64.5784 0.741734 63.7024 0.614815Z" fill="#F26529"/>
<path fill-rule="evenodd" clip-rule="evenodd" d="M136.739 3.19726C137.029 3.19726 137.364 3.12056 137.364 2.78125C137.364 2.47506 137.063 2.39836 136.795 2.39836H136.327V3.19726H136.739ZM135.814 1.97117H136.817C137.352 1.97117 137.876 2.19018 137.876 2.79208C137.876 3.19698 137.62 3.45937 137.218 3.54718L137.988 4.77257H137.363L136.695 3.60188H136.327V4.77257H135.814V1.97117ZM136.803 5.4842C137.985 5.4842 138.943 4.53231 138.943 3.3832C138.943 2.22341 137.985 1.2822 136.803 1.2822C135.621 1.2822 134.663 2.22341 134.663 3.3832C134.663 4.53231 135.621 5.4842 136.803 5.4842ZM136.806 0.899261C138.211 0.899261 139.348 2.00435 139.348 3.38315C139.348 4.76195 138.211 5.84525 136.806 5.84525C135.402 5.84525 134.265 4.76195 134.265 3.38315C134.265 2.00435 135.402 0.899261 136.806 0.899261Z" fill="#0072AB"/>
</svg>
